#!OML:ASF F:\VICON\USERDATA\INSTALL\Justin_Nancy\Justin_Nancy.ASF
:FULLY-SPECIFIED
:DEGREES
253
root -13.8471 17.0758 20.8678 -6.87119 -41.1821 9.25071
lowerback 7.10785 -0.710407 -6.51394
upperback 0.00326076 -1.43739 1.28882
thorax -3.79775 -0.582318 5.16019
lowerneck -16.0218 -3.06991 -10.4486
upperneck 23.6859 -2.71558 4.27354
head 10.4563 -1.73825 2.89843
rclavicle -1.32689e-014 -6.36111e-015
rhumerus -40.6343 -18.741 -70.782
rradius 28.6627
rwrist 8.15232
rhand -15.0116 8.06094
rfingers 7.12502
rthumb 11.1535 -21.6226
lclavicle -1.32689e-014 -6.36111e-015
lhumerus -26.919 7.83842 84.3075
lradius 27.2284
lwrist -11.3453
lhand -14.799 26.0205
lfingers 7.12502
lthumb 11.3586 55.6929
rfemur -32.8392 -4.6146 15.125
rtibia 56.2982
rfoot -9.96752 -8.39678
rtoes 4.13938
lfemur -3.49713 -5.34167 -31.1109
ltibia 29.3046
lfoot -18.9333 -3.50758
ltoes 5.30712
254
root -14.0081 17.0757 21.0282 -6.72594 -41.0914 9.49832
lowerback 7.09509 -0.814068 -6.79568
upperback -0.184848 -1.60165 1.31481
thorax -3.95756 -0.646439 5.36648
lowerneck -15.7382 -2.93687 -10.4438
upperneck 23.4205 -2.55393 4.2608
head 10.2912 -1.66154 2.91292
rclavicle -6.76862e-014 -7.95139e-015
rhumerus -41.1561 -18.4357 -70.6523
rradius 28.4026
rwrist 7.97404
rhand -14.7057 8.66254
rfingers 7.12502
rthumb 11.4486 -21.0049
lclavicle -6.76862e-014 -7.95139e-015
lhumerus -26.6059 7.00028 84.4179
lradius 27.6548
lwrist -11.1535
lhand -15.4269 25.6205
lfingers 7.12502
lthumb 10.7529 55.3252
rfemur -33.4767 -4.2758 14.7892
rtibia 53.3698
rfoot -9.58772 -8.78591
rtoes 3.35943
lfemur -2.53366 -5.28112 -31.3421
ltibia 28.4506
lfoot -19.164 -3.26189
ltoes 4.58872
255
root -14.1663 17.0755 21.1826 -6.58204 -40.8139 9.8207
lowerback 6.99497 -0.878175 -7.07889
upperback -0.179091 -1.70831 1.18761
thorax -3.87633 -0.698414 5.39986
lowerneck -15.9659 -2.97607 -10.3462
upperneck 23.408 -2.65933 4.46725
head 10.3381 -1.67321 2.9558
rclavicle 6.36111e-015 1.03368e-014
rhumerus -41.5036 -19.3099 -70.1341
rradius 27.9526
rwrist 8.86378
rhand -13.6536 9.82046
rfingers 7.12502
rthumb 12.4631 -19.7879
lclavicle 6.36111e-015 1.03368e-014
lhumerus -25.7647 6.19013 84.3923
lradius 28.2079
lwrist -10.6913
lhand -14.9732 26.0682
lfingers 7.12502
lthumb 11.1906 55.7497
rfemur -33.9787 -4.01531 14.3103
rtibia 50.2104
rfoot -8.94671 -9.30653
rtoes 4.91215
lfemur -1.71205 -5.22246 -31.5963
ltibia 27.6727
lfoot -19.189 -3.45449
ltoes 4.46752
256
root -14.3247 17.0733 21.3305 -6.1855 -40.5848 9.82349
lowerback 6.81196 -0.932602 -7.12286
upperback -0.158242 -1.77093 1.15883
thorax -3.74197 -0.73508 5.39388
lowerneck -16.2687 -3.04675 -10.2279
upperneck 23.3369 -2.75008 4.46691
head 10.3755 -1.6976 2.92116
rclavicle 3.01656e-014 6.36111e-015
rhumerus -41.8823 -20.6501 -69.2281
rradius 27.3755
rwrist 10.3489
rhand -12.8715 10.6725
rfingers 7.12502
rthumb 13.217 -18.8885
lclavicle 3.01656e-014 6.36111e-015
lhumerus -24.976 5.60488 84.3908
lradius 28.9212
lwrist -10.13
lhand -14.6287 26.3238
lfingers 7.12502
lthumb 11.5228 55.987
rfemur -34.3037 -3.54992 14.0838
rtibia 46.7135
rfoot -7.89492 -10.2345
rtoes 6.51273
lfemur -0.989083 -5.07025 -31.5226
ltibia 26.9799
lfoot -19.156 -4.01446
ltoes 6.62139
257
root -14.4886 17.0639 21.4849 -6.07598 -40.3878 10.0005
lowerback 6.87087 -1.00817 -7.39383
upperback -0.262891 -1.89971 1.19982
thorax -3.85699 -0.785336 5.60674
lowerneck -16.2062 -3.01351 -10.3717
upperneck 23.1769 -2.70374 4.61467
head 10.3056 -1.66824 3.003
rclavicle -1.41237e-013 7.15625e-015
rhumerus -42.2448 -21.3659 -68.4884
rradius 26.6602
rwrist 11.0713
rhand -12.9476 11.2127
rfingers 7.12502
rthumb 13.1437 -18.353
lclavicle -1.41237e-013 7.15625e-015
lhumerus -24.6174 5.33301 84.4139
lradius 29.5516
lwrist -9.73592
lhand -15.338 25.9974
lfingers 7.12502
lthumb 10.8388 55.6977
rfemur -34.3628 -3.18788 13.7539
rtibia 42.963
rfoot -6.2611 -11.076
rtoes 3.68658
lfemur -0.00814355 -5.02735 -31.6346
ltibia 26.2706
lfoot -19.2135 -4.3376
ltoes 7.53496
258
root -14.6538 17.0539 21.6423 -5.86578 -40.2007 10.0845
lowerback 6.90559 -1.03583 -7.4802
upperback -0.398625 -1.95215 1.16545
thorax -4.00991 -0.799059 5.62843
lowerneck -16.1392 -3.00876 -10.3826
upperneck 23.103 -2.74734 4.79941
head 10.2712 -1.66652 3.06473
rclavicle 2.57923e-014 2.54444e-014
rhumerus -42.7393 -22.8105 -67.4643
rradius 25.7378
rwrist 12.5593
rhand -13.1794 11.0102
rfingers 7.12502
rthumb 12.9203 -18.5699
lclavicle 2.57923e-014 2.54444e-014
lhumerus -24.3532 4.76548 84.4515
lradius 30.1821
lwrist -9.47526
lhand -16.427 25.3406
lfingers 7.12502
lthumb 9.78822 55.0931
rfemur -34.3941 -2.74322 13.4256
rtibia 38.9996
rfoot -4.54025 -11.8066
rtoes 0.255071
lfemur 0.94758 -4.88198 -31.6306
ltibia 25.5327
lfoot -19.1878 -4.6742
ltoes 7.48162
259
root -14.8205 17.0547 21.791 -5.50866 -40.106 10.0845
lowerback 6.66106 -1.04365 -7.57318
upperback -0.4088 -1.94955 1.18954
thorax -3.87944 -0.800943 5.69802
lowerneck -16.2409 -3.01212 -10.4092
upperneck 23.0323 -2.75607 4.90613
head 10.2672 -1.65667 3.10516
rclavicle -3.08613e-014 -1.98785e-014
rhumerus -43.0093 -24.165 -66.5948
rradius 24.9203
rwrist 13.9044
rhand -13.5053 10.3319
rfingers 7.12502
rthumb 12.6061 -19.2677
lclavicle -3.08613e-014 -1.98785e-014
lhumerus -23.8173 4.25803 84.5043
lradius 30.8294
lwrist -9.06245
lhand -16.7948 25.4154
lfingers 7.12502
lthumb 9.43335 55.1843
rfemur -34.2971 -1.73925 12.9577
rtibia 34.9394
rfoot -3.77267 -12.8025
rtoes 1.06915
lfemur 1.80557 -4.725 -31.4997
ltibia 24.6886
lfoot -18.9976 -5.02026
ltoes 8.471
260
root -14.9919 17.055 21.95 -5.1799 -39.9534 9.94189
lowerback 6.50546 -1.13709 -7.6297
upperback -0.404467 -2.06018 1.3266
thorax -3.76335 -0.858744 5.87893
lowerneck -16.2309 -2.98392 -10.589
upperneck 22.9 -2.68264 4.984
head 10.2154 -1.6261 3.1714
rclavicle 1.15295e-014 1.19271e-014
rhumerus -43.1316 -24.154 -66.5367
rradius 24.6413
rwrist 13.6571
rhand -13.8848 9.30222
rfingers 7.12502
rthumb 12.2402 -20.3196
lclavicle 1.15295e-014 1.19271e-014
lhumerus -23.3768 4.17234 84.5132
lradius 31.5698
lwrist -8.74201
lhand -17.3855 25.1029
lfingers 7.12502
lthumb 8.86335 54.8968
rfemur -33.7901 -0.56506 12.4522
rtibia 30.8155
rfoot -3.88583 -14.0969
rtoes 4.04712
lfemur 2.88334 -4.65082 -31.2833
ltibia 23.8094
lfoot -18.8934 -5.2868
ltoes 8.1585
261
root -15.1674 17.0501 22.1247 -4.96596 -39.6027 9.74733
lowerback 6.40467 -1.33581 -7.49037
upperback -0.428356 -2.30422 1.39516
thorax -3.69538 -0.984575 5.88928
lowerneck -16.3398 -2.96676 -10.6412
upperneck 23.087 -2.6114 4.88293
head 10.2979 -1.61347 3.15613
rclavicle 2.01766e-014 -3.97569e-015
rhumerus -43.5546 -24.4169 -66.0907
rradius 24.3339
rwrist 13.5609
rhand -13.8685 9.31265
rfingers 7.12502
rthumb 12.2559 -20.3082
lclavicle 2.01766e-014 -3.97569e-015
lhumerus -23.2227 4.38742 84.3229
lradius 32.3342
lwrist -9.16898
lhand -17.4363 25.0575
lfingers 7.12502
lthumb 8.81437 54.8534
rfemur -33.0057 0.105087 12.0147
rtibia 26.7502
rfoot -4.05147 -15.7042
rtoes 3.26717
lfemur 4.18078 -4.34691 -30.9709
ltibia 22.9124
lfoot -18.937 -5.8777
ltoes 6.81628
